PathFileType	4	(X/Y/Z)	C:\Documents and Settings\rtobon\Desktop\NewMocap\New\NoT\ActorI_Run.trc
DataRate	CameraRate	NumFrames	NumMarkers	Units	OrigDataRate	OrigDataStartFrame	OrigNumFrames
120.00	120.00	       4	49	mm	120.00	14	       105
Frame#	Time	Root			LtFtHip			LtBkHip			RtFtHip			RtBkHip			Spine1			Spine2			Spine3			SpineOffsetLow			SpineOffsetHigh			LtCtChest			RtCtChest			LtChest			RtChest			LtShoulder			LtBicep			LtElbow			LtForeArm			LtWrist			LtPinky			LtThumb			LtMiddFing			RtShoulder			RtBicep			RtElbow			RtForeArm			RtWrist			RtPinky			RtThumb			RtMiddFing			LtThigh			LtKnee			LtCalf			LtAnkle			LtHeel			LtBall			LtToe			RtThigh			RtKnee			RtCalf			RtAnkle			RtHeel			RtBall			RtToe			TopHead			LfFtHead			LtBkHead			RtFtHead			RtBkHead			
		X1	Y1	Z1	X2	Y2	Z2	X3	Y3	Z3	X4	Y4	Z4	X5	Y5	Z5	X6	Y6	Z6	X7	Y7	Z7	X8	Y8	Z8	X9	Y9	Z9	X10	Y10	Z10	X11	Y11	Z11	X12	Y12	Z12	X13	Y13	Z13	X14	Y14	Z14	X15	Y15	Z15	X16	Y16	Z16	X17	Y17	Z17	X18	Y18	Z18	X19	Y19	Z19	X20	Y20	Z20	X21	Y21	Z21	X22	Y22	Z22	X23	Y23	Z23	X24	Y24	Z24	X25	Y25	Z25	X26	Y26	Z26	X27	Y27	Z27	X28	Y28	Z28	X29	Y29	Z29	X30	Y30	Z30	X31	Y31	Z31	X32	Y32	Z32	X33	Y33	Z33	X34	Y34	Z34	X35	Y35	Z35	X36	Y36	Z36	X37	Y37	Z37	X38	Y38	Z38	X39	Y39	Z39	X40	Y40	Z40	X41	Y41	Z41	X42	Y42	Z42	X43	Y43	Z43	X44	Y44	Z44	X45	Y45	Z45	X46	Y46	Z46	X47	Y47	Z47	X48	Y48	Z48	X49	Y49	Z49	
14	0.108	-1222.18762	946.62433	20.06201	-1000.93170	915.59937	-88.37717	-1193.36121	948.45679	-98.59721	-1010.10455	879.88831	164.10924	-1200.10327	932.64819	145.60110	-1273.35706	1065.17261	59.82813	-1331.52686	1184.86450	77.30712	-1357.01404	1282.63220	71.47510	-1227.28174	1007.26208	127.22190	-1363.82031	1240.13232	-25.20812	-1065.73938	1211.59656	-7.28291	-1101.75671	1267.30579	44.55015	-1153.80518	1282.93201	-73.65805	-1128.16394	1305.42944	113.58028	-1281.08130	1328.39221	-130.67372	-1324.55298	1163.63867	-233.96228	-1468.58264	1136.12378	-280.06299	-1340.92261	1017.70380	-232.84555	-1322.43250	927.97552	-257.61136	-1317.45801	847.47430	-254.24606	-1268.82312	941.96881	-203.61082	-1264.88989	895.03149	-257.83554	-1215.33435	1332.60400	244.27353	-1039.24988	1292.27222	230.57164	-927.70886	1186.35681	284.78571	-989.48126	1304.84338	232.53670	-947.62939	1415.47424	222.50769	-912.90027	1479.34241	170.99231	-1017.42712	1414.43518	194.29149	-970.72516	1478.38452	216.06039	-902.60706	771.72510	-106.67056	-789.69330	592.63965	-148.55449	-914.14642	451.30304	-149.49309	-926.20392	248.42604	-109.23421	-1027.19324	182.62778	-34.71958	-857.86707	134.41690	-106.17307	-762.34094	117.66393	-53.55089	-1111.30554	569.62445	149.70747	-1238.14221	439.78711	174.25101	-1415.27563	413.31021	198.15555	-1572.20386	256.48248	156.38274	-1657.88013	247.62698	77.62003	-1570.25452	90.74354	160.25557	-1511.70654	76.53144	95.63766	-1449.02148	1537.20728	43.16715	-1307.17151	1539.97864	-19.96634	-1389.77661	1425.40161	-38.58792	-1302.70288	1560.70020	104.22111	-1400.85107	1435.24426	139.38310	
15	0.117	-1188.83118	947.09460	21.60573	-967.69592	916.60895	-90.53809	-1160.84863	948.13452	-97.24451	-975.28802	881.42297	162.36813	-1164.33923	934.35431	146.68889	-1241.30310	1066.65674	61.29038	-1298.75537	1186.31238	77.58804	-1325.37439	1283.95117	71.23631	-1192.19836	1009.20459	128.52463	-1332.26001	1241.37134	-24.79218	-1033.83838	1212.63147	-10.50762	-1070.09424	1268.39807	40.71601	-1122.97156	1282.93982	-75.43044	-1095.93506	1306.69873	109.79301	-1250.69409	1330.56982	-130.95700	-1297.59583	1168.96899	-235.64719	-1442.20862	1145.24915	-281.80939	-1318.12048	1022.96704	-234.33713	-1300.98596	932.85901	-261.21063	-1297.90125	852.05426	-257.47711	-1247.98401	945.27032	-205.82057	-1244.53235	898.75745	-260.49640	-1183.13269	1337.21387	239.87488	-1005.94714	1303.69897	231.91563	-891.20715	1204.23657	287.83392	-959.29211	1317.87695	233.16518	-924.63531	1431.16724	221.98117	-893.18530	1496.34277	170.21518	-993.73981	1425.07324	193.38423	-951.28748	1491.87061	213.64989	-868.01947	768.63263	-107.92283	-756.89404	588.20313	-146.46391	-876.42731	443.69812	-148.01988	-878.65594	239.83435	-107.17698	-977.86981	169.73767	-35.54941	-806.10571	127.19057	-103.22919	-710.77313	116.77160	-49.65940	-1078.41089	569.85315	148.79861	-1206.02795	441.59213	175.02184	-1382.32568	417.68115	198.49126	-1545.49438	266.39008	157.18741	-1628.20288	267.90472	81.18715	-1553.64648	101.93160	162.12029	-1499.50330	72.43931	96.01509	-1418.84985	1534.65063	43.00835	-1277.79883	1539.04395	-21.50422	-1359.85278	1424.04492	-39.41963	-1272.65186	1559.68018	103.07921	-1369.85718	1433.74561	138.70274	
16	0.125	-1154.94507	947.17542	22.18111	-935.48462	916.92480	-92.49798	-1129.43042	947.81543	-96.33646	-941.59216	882.84009	160.42155	-1129.47046	935.16498	146.66264	-1208.32898	1067.93750	61.42535	-1266.33606	1187.45227	77.54237	-1293.86621	1284.65527	70.89224	-1158.20483	1010.28375	129.39354	-1299.56555	1240.74890	-25.53062	-1002.17847	1213.74854	-13.84106	-1038.12195	1269.14673	37.97805	-1091.79443	1283.48315	-77.11913	-1063.49487	1307.43652	107.49628	-1219.15820	1331.68762	-130.78702	-1268.87280	1173.41040	-238.04396	-1413.54016	1152.28113	-282.10648	-1291.66711	1027.57654	-236.98358	-1275.84351	937.31781	-263.48697	-1273.82764	856.14368	-261.42709	-1222.96655	947.89203	-208.64494	-1219.42017	901.99835	-263.64774	-1151.21777	1340.13171	236.45274	-973.40179	1312.78638	232.75444	-856.18445	1218.28564	291.55099	-929.55542	1328.26843	234.50439	-899.74463	1442.82080	221.63672	-870.85254	1508.20959	167.29732	-967.95905	1433.00806	192.62112	-929.41260	1502.84192	211.51389	-834.18201	764.32031	-109.85069	-725.90417	583.43433	-144.23184	-841.15375	434.91174	-146.19897	-835.69556	231.27798	-105.48392	-934.01849	158.70413	-34.66726	-759.53247	121.37706	-101.24411	-664.34564	113.56760	-47.37218	-1041.98743	571.90540	150.80226	-1170.52209	438.45840	176.45833	-1349.37573	422.05212	198.82697	-1517.46338	277.93576	156.24829	-1595.95337	287.21765	82.82154	-1534.20874	116.26415	164.11314	-1484.75183	65.53421	99.50069	-1389.55774	1532.63733	42.82839	-1248.75952	1538.48547	-22.61951	-1330.08423	1422.61353	-39.83955	-1243.18945	1559.32629	101.19379	-1338.72302	1432.12170	138.22617	
17	0.133	-1123.50366	947.05524	22.08482	-903.01593	917.03296	-93.94965	-1097.45264	947.32043	-97.36596	-908.90399	883.76349	158.25014	-1096.63867	936.03467	145.99199	-1176.23853	1068.62109	60.98027	-1233.95361	1187.75061	76.03298	-1261.49854	1284.62317	69.16769	-1125.75464	1012.03613	128.93878	-1267.25842	1241.50000	-26.80907	-970.08661	1214.40674	-15.72772	-1006.27643	1270.52332	35.19273	-1059.92798	1284.24731	-79.29326	-1031.18335	1308.20349	106.43485	-1187.63770	1332.74976	-131.99722	-1238.22437	1176.26086	-240.55945	-1383.15332	1156.23645	-282.82874	-1261.62561	1030.27429	-239.44853	-1246.64050	940.18842	-266.93088	-1245.03992	859.04974	-264.57217	-1193.72778	950.54333	-210.44972	-1190.78149	904.74011	-266.40289	-1119.83850	1341.01904	233.64462	-943.20544	1319.85693	235.41594	-823.71912	1228.11145	295.42120	-899.32483	1335.05603	235.80473	-872.19299	1450.04309	220.53152	-844.57916	1514.79407	165.37097	-940.04437	1438.02026	190.65607	-903.48505	1509.10315	208.47433	-801.39807	759.44421	-112.48875	-696.12732	577.21161	-141.31007	-809.05579	426.71613	-144.36118	-797.34692	223.62280	-103.39618	-894.58563	149.29109	-32.64665	-719.10950	115.19374	-99.64236	-622.82336	109.24767	-45.88210	-1003.51501	570.87549	150.44592	-1129.59790	432.52084	176.97932	-1310.70117	424.31082	200.28603	-1487.91479	291.22592	154.07841	-1559.44324	305.57925	80.82175	-1510.17285	133.53705	167.20416	-1469.73511	60.70533	106.46854	-1360.08826	1530.99365	42.10806	-1220.09021	1538.32190	-24.11934	-1299.61255	1420.93958	-40.51764	-1213.18713	1559.18262	99.67094	-1307.54663	1431.05212	137.36841	
